Taxi Driver (1976)

113 min  -  Drama | Thriller

A mentally unstable Vietnam war veteran works as a nighttime taxi driver in New York City where the perceived decadence and sleaze feeds his urge to violently lash out, attempting to save a teenage prostitute in the process. 

IMDB RATING: 8.5/10


Format                         : AVI
Format/Info                    : Audio Video Interleave
File size                      : 463 MiB
Duration                       : 1h 49mn
Overall bit rate               : 593 Kbps
Writing library                : VirtualDub build 10740/release

Video
ID                             : 0
Format                         : MPEG-4 Visual
Codec ID                       : DIV3
Codec ID/Hint                  : DivX 3 Low
Duration                       : 1h 49mn
Bit rate                       : 468 Kbps
Width                          : 624 pixels
Height                         : 336 pixels
Display aspect ratio           : 1.857
Frame rate                     : 25.000 fps
Color space                    : YUV
Chroma subsampling             : 4:2:0
Bit depth                      : 8 bits
Compression mode               : Lossy
Bits/(Pixel*Frame)             : 0.089
Stream size                    : 366 MiB (79%)

Audio
ID                             : 1
Format                         : MPEG Audio
Format version                 : Version 1
Format profile                 : Layer 3
Mode                           : Joint stereo
Codec ID                       : 55
Codec ID/Hint                  : MP3
Duration                       : 1h 49mn
Bit rate mode                  : Constant
Bit rate                       : 112 Kbps
Channel(s)                     : 2 channels
Sampling rate                  : 48.0 KHz
Compression mode               : Lossy
Stream size                    : 87.5 MiB (19%)
Alignment                      : Split accross interleaves
Interleave, duration           : 24 ms (0.60 video frame)
Interleave, preload duration   : 6551016 ms

